<svg xmlns="http://www.w3.org/2000/svg" width="24" height="24" viewBox="0 0 24 24" fill="none" stroke="currentColor" stroke-width="2" stroke-linecap="round" stroke-linejoin="round" aria-hidden="true"><title>Esportes</title><path d="M6.5 6.5c.55.55.9 1.27.9 2.08V19a2 2 0 0 1-2 2h-1a2 2 0 0 1-2-2v-2.42c0-.81.35-1.53.9-2.08Z"/><path d="M12 6.5c.55.55.9 1.27.9 2.08V19a2 2 0 0 1-2 2h-1a2 2 0 0 1-2-2v-2.42c0-.81.35-1.53.9-2.08Z"/><path d="M17.5 6.5c.55.55.9 1.27.9 2.08V19a2 2 0 0 1-2 2h-1a2 2 0 0 1-2-2v-2.42c0-.81.35-1.53.9-2.08Z"/></svg>
